<svg width="725" height="176" viewBox="0 0 725 176" fill="none" xmlns="http://www.w3.org/2000/svg">
<path d="M95.465 79.3335H106.879V82.0526H95.465V79.3335ZM95.7812 91H92.6195V68.8685H108.238V71.6191H95.7812V91ZM122.03 91V87.459L121.872 86.795V80.7563C121.872 79.4706 121.493 78.4799 120.734 77.7843C119.996 77.0677 118.879 76.7094 117.383 76.7094C116.392 76.7094 115.422 76.878 114.474 77.2152C113.525 77.5314 112.724 77.9635 112.071 78.5115L110.806 76.2351C111.671 75.5396 112.703 75.0126 113.905 74.6543C115.127 74.2749 116.402 74.0852 117.73 74.0852C120.028 74.0852 121.798 74.6438 123.042 75.7609C124.285 76.878 124.907 78.5853 124.907 80.8828V91H122.03ZM116.529 91.1897C115.285 91.1897 114.189 90.9789 113.241 90.5574C112.313 90.1358 111.597 89.5562 111.091 88.8185C110.585 88.0597 110.332 87.206 110.332 86.2575C110.332 85.3512 110.543 84.5292 110.964 83.7915C111.407 83.0537 112.113 82.4636 113.083 82.0209C114.073 81.5783 115.401 81.357 117.066 81.357H122.378V83.5385H117.193C115.675 83.5385 114.653 83.7915 114.126 84.2973C113.599 84.8032 113.336 85.4144 113.336 86.1311C113.336 86.9531 113.662 87.617 114.316 88.1229C114.969 88.6077 115.876 88.8501 117.035 88.8501C118.173 88.8501 119.164 88.5972 120.007 88.0913C120.871 87.5854 121.493 86.8477 121.872 85.8781L122.473 87.9648C122.072 88.9555 121.366 89.7459 120.355 90.3361C119.343 90.9052 118.068 91.1897 116.529 91.1897ZM137.828 91.1897C136.12 91.1897 134.592 90.8208 133.243 90.0831C131.915 89.3454 130.872 88.3337 130.113 87.0479C129.354 85.7622 128.975 84.2868 128.975 82.6217C128.975 80.9565 129.354 79.4811 130.113 78.1954C130.872 76.9096 131.915 75.9084 133.243 75.1918C134.592 74.4541 136.12 74.0852 137.828 74.0852C139.345 74.0852 140.694 74.3908 141.874 75.0021C143.076 75.5923 144.003 76.4775 144.657 77.6579L142.349 79.1438C141.801 78.3218 141.126 77.7211 140.325 77.3417C139.545 76.9412 138.702 76.741 137.796 76.741C136.7 76.741 135.72 76.9834 134.856 77.4682C133.991 77.953 133.306 78.638 132.801 79.5232C132.295 80.3874 132.042 81.4202 132.042 82.6217C132.042 83.8231 132.295 84.8664 132.801 85.7517C133.306 86.6369 133.991 87.322 134.856 87.8067C135.72 88.2915 136.7 88.5339 137.796 88.5339C138.702 88.5339 139.545 88.3442 140.325 87.9648C141.126 87.5644 141.801 86.9531 142.349 86.1311L144.657 87.5854C144.003 88.7447 143.076 89.6405 141.874 90.2728C140.694 90.8841 139.345 91.1897 137.828 91.1897ZM136.342 98.0821C135.794 98.0821 135.288 98.0188 134.824 97.8924C134.36 97.787 133.928 97.6184 133.528 97.3865L134.192 95.8373C134.529 96.027 134.866 96.164 135.203 96.2483C135.562 96.3326 135.941 96.3748 136.342 96.3748C136.953 96.3748 137.395 96.2589 137.669 96.027C137.965 95.8162 138.112 95.5106 138.112 95.1101C138.112 94.7307 137.965 94.4251 137.669 94.1933C137.395 93.9825 136.942 93.8771 136.31 93.8771H135.456L136.247 90.7787H137.986L137.511 92.5808C138.418 92.6651 139.103 92.9497 139.566 93.4345C140.03 93.9192 140.262 94.5094 140.262 95.205C140.262 96.0902 139.904 96.7858 139.187 97.2917C138.47 97.8186 137.522 98.0821 136.342 98.0821ZM158.988 91V87.459L158.83 86.795V80.7563C158.83 79.4706 158.451 78.4799 157.692 77.7843C156.954 77.0677 155.837 76.7094 154.34 76.7094C153.35 76.7094 152.38 76.878 151.432 77.2152C150.483 77.5314 149.682 77.9635 149.029 78.5115L147.764 76.2351C148.628 75.5396 149.661 75.0126 150.863 74.6543C152.085 74.2749 153.36 74.0852 154.688 74.0852C156.986 74.0852 158.756 74.6438 160 75.7609C161.243 76.878 161.865 78.5853 161.865 80.8828V91H158.988ZM153.487 91.1897C152.243 91.1897 151.147 90.9789 150.199 90.5574C149.271 90.1358 148.555 89.5562 148.049 88.8185C147.543 88.0597 147.29 87.206 147.29 86.2575C147.29 85.3512 147.501 84.5292 147.922 83.7915C148.365 83.0537 149.071 82.4636 150.041 82.0209C151.031 81.5783 152.359 81.357 154.024 81.357H159.336V83.5385H154.151C152.633 83.5385 151.611 83.7915 151.084 84.2973C150.557 84.8032 150.294 85.4144 150.294 86.1311C150.294 86.9531 150.62 87.617 151.274 88.1229C151.927 88.6077 152.833 88.8501 153.993 88.8501C155.131 88.8501 156.121 88.5972 156.965 88.0913C157.829 87.5854 158.451 86.8477 158.83 85.8781L159.431 87.9648C159.03 88.9555 158.324 89.7459 157.312 90.3361C156.301 90.9052 155.025 91.1897 153.487 91.1897ZM182.897 91.1897C181.274 91.1897 179.819 90.8314 178.534 90.1147C177.269 89.3981 176.268 88.3969 175.53 87.1112C174.792 85.8254 174.424 84.3289 174.424 82.6217C174.424 80.9144 174.792 79.4284 175.53 78.1637C176.268 76.878 177.269 75.8768 178.534 75.1602C179.819 74.4435 181.274 74.0852 182.897 74.0852C184.309 74.0852 185.584 74.4014 186.722 75.0337C187.86 75.666 188.767 76.6145 189.441 77.8792C190.137 79.1438 190.485 80.7247 190.485 82.6217C190.485 84.5186 190.147 86.0995 189.473 87.3641C188.82 88.6288 187.924 89.5878 186.786 90.2412C185.647 90.8735 184.351 91.1897 182.897 91.1897ZM183.15 88.5339C184.204 88.5339 185.152 88.2915 185.995 87.8067C186.859 87.322 187.534 86.6369 188.019 85.7517C188.524 84.8453 188.777 83.802 188.777 82.6217C188.777 81.4202 188.524 80.3874 188.019 79.5232C187.534 78.638 186.859 77.953 185.995 77.4682C185.152 76.9834 184.204 76.741 183.15 76.741C182.075 76.741 181.116 76.9834 180.273 77.4682C179.429 77.953 178.755 78.638 178.249 79.5232C177.743 80.3874 177.49 81.4202 177.49 82.6217C177.49 83.802 177.743 84.8453 178.249 85.7517C178.755 86.6369 179.429 87.322 180.273 87.8067C181.116 88.2915 182.075 88.5339 183.15 88.5339ZM188.872 91V86.4789L189.062 82.59L188.746 78.7012V67.5406H191.781V91H188.872ZM204.701 91.1897C203.014 91.1897 201.518 90.8208 200.211 90.0831C198.904 89.3454 197.872 88.3337 197.113 87.0479C196.354 85.7411 195.975 84.2657 195.975 82.6217C195.975 80.9565 196.354 79.4811 197.113 78.1954C197.872 76.9096 198.904 75.9084 200.211 75.1918C201.518 74.4541 203.014 74.0852 204.701 74.0852C206.366 74.0852 207.852 74.4541 209.159 75.1918C210.486 75.9084 211.519 76.9096 212.257 78.1954C213.016 79.46 213.395 80.9354 213.395 82.6217C213.395 84.2868 213.016 85.7622 212.257 87.0479C211.519 88.3337 210.486 89.3454 209.159 90.0831C207.852 90.8208 206.366 91.1897 204.701 91.1897ZM204.701 88.5339C205.776 88.5339 206.735 88.2915 207.578 87.8067C208.442 87.322 209.116 86.6369 209.601 85.7517C210.086 84.8453 210.328 83.802 210.328 82.6217C210.328 81.4202 210.086 80.3874 209.601 79.5232C209.116 78.638 208.442 77.953 207.578 77.4682C206.735 76.9834 205.776 76.741 204.701 76.741C203.626 76.741 202.667 76.9834 201.824 77.4682C200.98 77.953 200.306 78.638 199.8 79.5232C199.294 80.3874 199.041 81.4202 199.041 82.6217C199.041 83.802 199.294 84.8453 199.8 85.7517C200.306 86.6369 200.98 87.322 201.824 87.8067C202.667 88.2915 203.626 88.5339 204.701 88.5339ZM382.519 91.1897C380.727 91.1897 379.146 90.8208 377.776 90.0831C376.427 89.3454 375.373 88.3337 374.615 87.0479C373.877 85.7622 373.508 84.2868 373.508 82.6217C373.508 80.9565 373.866 79.4811 374.583 78.1954C375.321 76.9096 376.322 75.9084 377.587 75.1918C378.872 74.4541 380.316 74.0852 381.918 74.0852C383.541 74.0852 384.974 74.4435 386.218 75.1602C387.461 75.8768 388.431 76.8885 389.127 78.1954C389.843 79.4811 390.201 80.9881 390.201 82.7165C390.201 82.843 390.191 82.9905 390.17 83.1591C390.17 83.3278 390.159 83.4858 390.138 83.6334H375.879V81.4518H388.557L387.324 82.2106C387.345 81.1357 387.124 80.1767 386.66 79.3335C386.197 78.4904 385.554 77.837 384.732 77.3733C383.931 76.8885 382.993 76.6462 381.918 76.6462C380.864 76.6462 379.926 76.8885 379.104 77.3733C378.282 77.837 377.639 78.501 377.176 79.3652C376.712 80.2083 376.48 81.1778 376.48 82.2739V82.7797C376.48 83.8968 376.733 84.898 377.239 85.7833C377.766 86.6475 378.493 87.322 379.42 87.8067C380.348 88.2915 381.412 88.5339 382.614 88.5339C383.604 88.5339 384.5 88.3653 385.301 88.0281C386.123 87.6908 386.84 87.185 387.451 86.5105L389.127 88.4707C388.368 89.3559 387.419 90.0304 386.281 90.4941C385.164 90.9578 383.91 91.1897 382.519 91.1897ZM411.854 74.0852C413.224 74.0852 414.426 74.3487 415.459 74.8756C416.512 75.4026 417.334 76.2035 417.925 77.2785C418.515 78.3534 418.81 79.7129 418.81 81.357V91H415.775V81.7048C415.775 80.0818 415.374 78.8593 414.573 78.0373C413.793 77.2152 412.687 76.8042 411.254 76.8042C410.179 76.8042 409.241 77.015 408.44 77.4366C407.639 77.8581 407.017 78.4799 406.574 79.3019C406.153 80.124 405.942 81.1462 405.942 82.3687V91H402.907V74.2433H405.816V78.7645L405.341 77.563C405.889 76.467 406.732 75.6134 407.871 75.0021C409.009 74.3908 410.337 74.0852 411.854 74.0852ZM431.604 91.1897C429.918 91.1897 428.421 90.8208 427.114 90.0831C425.808 89.3454 424.775 88.3337 424.016 87.0479C423.257 85.7411 422.878 84.2657 422.878 82.6217C422.878 80.9565 423.257 79.4811 424.016 78.1954C424.775 76.9096 425.808 75.9084 427.114 75.1918C428.421 74.4541 429.918 74.0852 431.604 74.0852C433.269 74.0852 434.755 74.4541 436.062 75.1918C437.39 75.9084 438.423 76.9096 439.16 78.1954C439.919 79.46 440.298 80.9354 440.298 82.6217C440.298 84.2868 439.919 85.7622 439.16 87.0479C438.423 88.3337 437.39 89.3454 436.062 90.0831C434.755 90.8208 433.269 91.1897 431.604 91.1897ZM431.604 88.5339C432.679 88.5339 433.638 88.2915 434.481 87.8067C435.345 87.322 436.02 86.6369 436.504 85.7517C436.989 84.8453 437.232 83.802 437.232 82.6217C437.232 81.4202 436.989 80.3874 436.504 79.5232C436.02 78.638 435.345 77.953 434.481 77.4682C433.638 76.9834 432.679 76.741 431.604 76.741C430.529 76.741 429.57 76.9834 428.727 77.4682C427.884 77.953 427.209 78.638 426.703 79.5232C426.198 80.3874 425.945 81.4202 425.945 82.6217C425.945 83.802 426.198 84.8453 426.703 85.7517C427.209 86.6369 427.884 87.322 428.727 87.8067C429.57 88.2915 430.529 88.5339 431.604 88.5339Z" fill="#CFCFCF"/>
<path d="M231.205 91.2529C229.751 91.2529 228.349 91.0843 227 90.7471C225.672 90.3887 224.619 89.9461 223.839 89.4192L225.483 85.8781C226.263 86.3629 227.18 86.7634 228.233 87.0796C229.308 87.3747 230.362 87.5222 231.395 87.5222C232.533 87.5222 233.334 87.3852 233.798 87.1112C234.283 86.8372 234.525 86.4578 234.525 85.973C234.525 85.5725 234.335 85.2774 233.956 85.0877C233.598 84.877 233.113 84.7189 232.502 84.6135C231.89 84.5081 231.216 84.4027 230.478 84.2973C229.762 84.1919 229.034 84.0549 228.297 83.8863C227.559 83.6966 226.884 83.4226 226.273 83.0643C225.662 82.706 225.167 82.2212 224.787 81.6099C224.429 80.9987 224.25 80.2083 224.25 79.2387C224.25 78.1637 224.555 77.2152 225.167 76.3932C225.799 75.5712 226.705 74.9283 227.886 74.4646C229.066 73.9798 230.478 73.7374 232.122 73.7374C233.281 73.7374 234.462 73.8639 235.663 74.1168C236.865 74.3698 237.866 74.7386 238.667 75.2234L237.023 78.7328C236.201 78.2481 235.368 77.9213 234.525 77.7527C233.703 77.563 232.902 77.4682 232.122 77.4682C231.026 77.4682 230.225 77.6157 229.719 77.9108C229.214 78.2059 228.961 78.5853 228.961 79.049C228.961 79.4706 229.14 79.7867 229.498 79.9975C229.877 80.2083 230.373 80.3769 230.984 80.5034C231.595 80.6298 232.259 80.7457 232.976 80.8511C233.714 80.9354 234.451 81.0724 235.189 81.2621C235.927 81.4518 236.591 81.7259 237.181 82.0842C237.792 82.4214 238.287 82.8957 238.667 83.5069C239.046 84.0971 239.236 84.877 239.236 85.8465C239.236 86.9004 238.92 87.8384 238.287 88.6604C237.655 89.4613 236.738 90.0937 235.537 90.5574C234.356 91.0211 232.913 91.2529 231.205 91.2529ZM250.721 91.2529C248.781 91.2529 247.074 90.8735 245.599 90.1147C244.144 89.3559 243.017 88.3231 242.216 87.0163C241.415 85.6884 241.014 84.1814 241.014 82.4952C241.014 80.7879 241.404 79.2809 242.184 77.974C242.985 76.6462 244.071 75.6134 245.441 74.8756C246.811 74.1168 248.36 73.7374 250.088 73.7374C251.753 73.7374 253.25 74.0958 254.578 74.8124C255.927 75.508 256.991 76.5197 257.771 77.8476C258.551 79.1544 258.941 80.7247 258.941 82.5584C258.941 82.7481 258.93 82.9694 258.909 83.2224C258.888 83.4542 258.867 83.6755 258.846 83.8863H245.03V81.0092H256.253L254.356 81.8629C254.356 80.9776 254.177 80.2083 253.819 79.5549C253.461 78.9015 252.965 78.3956 252.333 78.0373C251.701 77.6579 250.963 77.4682 250.12 77.4682C249.277 77.4682 248.528 77.6579 247.875 78.0373C247.243 78.3956 246.747 78.912 246.389 79.5865C246.031 80.2399 245.852 81.0198 245.852 81.9261V82.6849C245.852 83.6123 246.052 84.4343 246.452 85.151C246.874 85.8465 247.454 86.384 248.191 86.7634C248.95 87.1217 249.835 87.3009 250.847 87.3009C251.753 87.3009 252.544 87.1639 253.218 86.8899C253.914 86.6159 254.546 86.2048 255.115 85.6568L257.739 88.5023C256.96 89.3876 255.979 90.0726 254.799 90.5574C253.619 91.0211 252.259 91.2529 250.721 91.2529ZM269.401 91.2529C267.989 91.2529 266.725 90.9789 265.607 90.4309C264.511 89.8829 263.658 89.0503 263.047 87.9332C262.435 86.795 262.13 85.3512 262.13 83.6018V73.9904H267.062V82.8746C267.062 84.2868 267.357 85.3301 267.947 86.0046C268.558 86.658 269.412 86.9847 270.508 86.9847C271.267 86.9847 271.941 86.8266 272.531 86.5105C273.122 86.1732 273.585 85.6674 273.923 84.9929C274.26 84.2973 274.428 83.4331 274.428 82.4003V73.9904H279.361V91H274.681V86.3208L275.535 87.6803C274.966 88.8606 274.123 89.7564 273.006 90.3677C271.91 90.9578 270.708 91.2529 269.401 91.2529ZM291.619 97.3865C290.86 97.3865 290.133 97.3022 289.438 97.1336C288.742 96.986 288.152 96.7542 287.667 96.438L288.995 92.8654C289.564 93.2658 290.26 93.4661 291.082 93.4661C291.693 93.4661 292.178 93.2553 292.536 92.8338C292.915 92.4333 293.105 91.822 293.105 91V73.9904H298.037V90.9684C298.037 92.9286 297.479 94.4883 296.362 95.6476C295.244 96.8069 293.664 97.3865 291.619 97.3865ZM295.571 71.6191C294.665 71.6191 293.927 71.3557 293.358 70.8287C292.789 70.3018 292.504 69.6484 292.504 68.8685C292.504 68.0886 292.789 67.4352 293.358 66.9083C293.927 66.3814 294.665 66.1179 295.571 66.1179C296.477 66.1179 297.215 66.3708 297.784 66.8767C298.353 67.3615 298.638 67.9938 298.638 68.7737C298.638 69.5957 298.353 70.2807 297.784 70.8287C297.236 71.3557 296.499 71.6191 295.571 71.6191ZM311.02 91.2529C309.081 91.2529 307.374 90.8735 305.898 90.1147C304.444 89.3559 303.316 88.3231 302.515 87.0163C301.714 85.6884 301.314 84.1814 301.314 82.4952C301.314 80.7879 301.704 79.2809 302.484 77.974C303.285 76.6462 304.37 75.6134 305.74 74.8756C307.11 74.1168 308.66 73.7374 310.388 73.7374C312.053 73.7374 313.55 74.0958 314.877 74.8124C316.226 75.508 317.291 76.5197 318.071 77.8476C318.851 79.1544 319.24 80.7247 319.24 82.5584C319.24 82.7481 319.23 82.9694 319.209 83.2224C319.188 83.4542 319.167 83.6755 319.146 83.8863H305.329V81.0092H316.553L314.656 81.8629C314.656 80.9776 314.477 80.2083 314.119 79.5549C313.76 78.9015 313.265 78.3956 312.633 78.0373C312 77.6579 311.263 77.4682 310.419 77.4682C309.576 77.4682 308.828 77.6579 308.175 78.0373C307.542 78.3956 307.047 78.912 306.689 79.5865C306.33 80.2399 306.151 81.0198 306.151 81.9261V82.6849C306.151 83.6123 306.352 84.4343 306.752 85.151C307.174 85.8465 307.753 86.384 308.491 86.7634C309.25 87.1217 310.135 87.3009 311.147 87.3009C312.053 87.3009 312.843 87.1639 313.518 86.8899C314.213 86.6159 314.846 86.2048 315.415 85.6568L318.039 88.5023C317.259 89.3876 316.279 90.0726 315.099 90.5574C313.918 91.0211 312.559 91.2529 311.02 91.2529ZM322.524 91V73.9904H327.456V91H322.524ZM324.99 71.6191C324.084 71.6191 323.346 71.3557 322.777 70.8287C322.208 70.3018 321.923 69.6484 321.923 68.8685C321.923 68.0886 322.208 67.4352 322.777 66.9083C323.346 66.3814 324.084 66.1179 324.99 66.1179C325.897 66.1179 326.634 66.3708 327.203 66.8767C327.772 67.3615 328.057 67.9938 328.057 68.7737C328.057 69.5957 327.772 70.2807 327.203 70.8287C326.655 71.3557 325.918 71.6191 324.99 71.6191ZM338.989 91.2529C336.987 91.2529 335.427 90.7471 334.31 89.7353C333.193 88.7025 332.634 87.1744 332.634 85.151V70.228H337.567V85.0877C337.567 85.8044 337.756 86.3629 338.136 86.7634C338.515 87.1428 339.031 87.3325 339.685 87.3325C340.465 87.3325 341.129 87.1217 341.677 86.7002L343.005 90.178C342.499 90.5363 341.888 90.8103 341.171 91C340.475 91.1686 339.748 91.2529 338.989 91.2529ZM330.01 78.1637V74.3698H341.803V78.1637H330.01ZM353.342 91.2529C351.53 91.2529 349.917 90.8735 348.505 90.1147C347.114 89.3559 346.007 88.3231 345.185 87.0163C344.384 85.6884 343.984 84.1814 343.984 82.4952C343.984 80.7879 344.384 79.2809 345.185 77.974C346.007 76.6462 347.114 75.6134 348.505 74.8756C349.917 74.1168 351.53 73.7374 353.342 73.7374C355.134 73.7374 356.736 74.1168 358.148 74.8756C359.56 75.6134 360.667 76.6356 361.468 77.9424C362.269 79.2492 362.669 80.7668 362.669 82.4952C362.669 84.1814 362.269 85.6884 361.468 87.0163C360.667 88.3231 359.56 89.3559 358.148 90.1147C356.736 90.8735 355.134 91.2529 353.342 91.2529ZM353.342 87.206C354.164 87.206 354.902 87.0163 355.555 86.6369C356.209 86.2575 356.725 85.7201 357.105 85.0245C357.484 84.3079 357.674 83.4648 357.674 82.4952C357.674 81.5045 357.484 80.6614 357.105 79.9659C356.725 79.2703 356.209 78.7328 355.555 78.3534C354.902 77.974 354.164 77.7843 353.342 77.7843C352.52 77.7843 351.782 77.974 351.129 78.3534C350.476 78.7328 349.949 79.2703 349.548 79.9659C349.169 80.6614 348.979 81.5045 348.979 82.4952C348.979 83.4648 349.169 84.3079 349.548 85.0245C349.949 85.7201 350.476 86.2575 351.129 86.6369C351.782 87.0163 352.52 87.206 353.342 87.206ZM458.109 91.2529C456.654 91.2529 455.253 91.0843 453.904 90.7471C452.576 90.3887 451.522 89.9461 450.742 89.4192L452.386 85.8781C453.166 86.3629 454.083 86.7634 455.137 87.0796C456.212 87.3747 457.265 87.5222 458.298 87.5222C459.436 87.5222 460.237 87.3852 460.701 87.1112C461.186 86.8372 461.428 86.4578 461.428 85.973C461.428 85.5725 461.239 85.2774 460.859 85.0877C460.501 84.877 460.016 84.7189 459.405 84.6135C458.794 84.5081 458.119 84.4027 457.381 84.2973C456.665 84.1919 455.938 84.0549 455.2 83.8863C454.462 83.6966 453.788 83.4226 453.176 83.0643C452.565 82.706 452.07 82.2212 451.69 81.6099C451.332 80.9987 451.153 80.2083 451.153 79.2387C451.153 78.1637 451.459 77.2152 452.07 76.3932C452.702 75.5712 453.609 74.9283 454.789 74.4646C455.969 73.9798 457.381 73.7374 459.025 73.7374C460.185 73.7374 461.365 73.8639 462.567 74.1168C463.768 74.3698 464.769 74.7386 465.57 75.2234L463.926 78.7328C463.104 78.2481 462.271 77.9213 461.428 77.7527C460.606 77.563 459.805 77.4682 459.025 77.4682C457.929 77.4682 457.128 77.6157 456.623 77.9108C456.117 78.2059 455.864 78.5853 455.864 79.049C455.864 79.4706 456.043 79.7867 456.401 79.9975C456.781 80.2083 457.276 80.3769 457.887 80.5034C458.499 80.6298 459.162 80.7457 459.879 80.8511C460.617 80.9354 461.355 81.0724 462.092 81.2621C462.83 81.4518 463.494 81.7259 464.084 82.0842C464.695 82.4214 465.191 82.8957 465.57 83.5069C465.949 84.0971 466.139 84.877 466.139 85.8465C466.139 86.9004 465.823 87.8384 465.191 88.6604C464.558 89.4613 463.641 90.0937 462.44 90.5574C461.26 91.0211 459.816 91.2529 458.109 91.2529ZM477.624 91.2529C475.685 91.2529 473.977 90.8735 472.502 90.1147C471.048 89.3559 469.92 88.3231 469.119 87.0163C468.318 85.6884 467.918 84.1814 467.918 82.4952C467.918 80.7879 468.308 79.2809 469.087 77.974C469.888 76.6462 470.974 75.6134 472.344 74.8756C473.714 74.1168 475.263 73.7374 476.991 73.7374C478.657 73.7374 480.153 74.0958 481.481 74.8124C482.83 75.508 483.894 76.5197 484.674 77.8476C485.454 79.1544 485.844 80.7247 485.844 82.5584C485.844 82.7481 485.834 82.9694 485.812 83.2224C485.791 83.4542 485.77 83.6755 485.749 83.8863H471.933V81.0092H483.157L481.26 81.8629C481.26 80.9776 481.081 80.2083 480.722 79.5549C480.364 78.9015 479.869 78.3956 479.236 78.0373C478.604 77.6579 477.866 77.4682 477.023 77.4682C476.18 77.4682 475.432 77.6579 474.778 78.0373C474.146 78.3956 473.651 78.912 473.292 79.5865C472.934 80.2399 472.755 81.0198 472.755 81.9261V82.6849C472.755 83.6123 472.955 84.4343 473.356 85.151C473.777 85.8465 474.357 86.384 475.095 86.7634C475.853 87.1217 476.739 87.3009 477.75 87.3009C478.657 87.3009 479.447 87.1639 480.122 86.8899C480.817 86.6159 481.449 86.2048 482.018 85.6568L484.643 88.5023C483.863 89.3876 482.883 90.0726 481.702 90.5574C480.522 91.0211 479.162 91.2529 477.624 91.2529ZM496.305 91.2529C494.892 91.2529 493.628 90.9789 492.511 90.4309C491.415 89.8829 490.561 89.0503 489.95 87.9332C489.339 86.795 489.033 85.3512 489.033 83.6018V73.9904H493.965V82.8746C493.965 84.2868 494.26 85.3301 494.85 86.0046C495.462 86.658 496.315 86.9847 497.411 86.9847C498.17 86.9847 498.845 86.8266 499.435 86.5105C500.025 86.1732 500.489 85.6674 500.826 84.9929C501.163 84.2973 501.332 83.4331 501.332 82.4003V73.9904H506.264V91H501.585V86.3208L502.438 87.6803C501.869 88.8606 501.026 89.7564 499.909 90.3677C498.813 90.9578 497.611 91.2529 496.305 91.2529ZM526.743 91.2529C524.74 91.2529 523.18 90.7471 522.063 89.7353C520.946 88.7025 520.388 87.1744 520.388 85.151V70.228H525.32V85.0877C525.32 85.8044 525.51 86.3629 525.889 86.7634C526.268 87.1428 526.785 87.3325 527.438 87.3325C528.218 87.3325 528.882 87.1217 529.43 86.7002L530.758 90.178C530.252 90.5363 529.641 90.8103 528.924 91C528.229 91.1686 527.501 91.2529 526.743 91.2529ZM517.764 78.1637V74.3698H529.556V78.1637H517.764ZM541.443 91.2529C539.504 91.2529 537.797 90.8735 536.321 90.1147C534.867 89.3559 533.739 88.3231 532.938 87.0163C532.137 85.6884 531.737 84.1814 531.737 82.4952C531.737 80.7879 532.127 79.2809 532.907 77.974C533.708 76.6462 534.793 75.6134 536.163 74.8756C537.533 74.1168 539.083 73.7374 540.811 73.7374C542.476 73.7374 543.973 74.0958 545.3 74.8124C546.649 75.508 547.714 76.5197 548.494 77.8476C549.274 79.1544 549.664 80.7247 549.664 82.5584C549.664 82.7481 549.653 82.9694 549.632 83.2224C549.611 83.4542 549.59 83.6755 549.569 83.8863H535.752V81.0092H546.976L545.079 81.8629C545.079 80.9776 544.9 80.2083 544.542 79.5549C544.183 78.9015 543.688 78.3956 543.056 78.0373C542.423 77.6579 541.686 77.4682 540.843 77.4682C539.999 77.4682 539.251 77.6579 538.598 78.0373C537.965 78.3956 537.47 78.912 537.112 79.5865C536.753 80.2399 536.574 81.0198 536.574 81.9261V82.6849C536.574 83.6123 536.775 84.4343 537.175 85.151C537.597 85.8465 538.176 86.384 538.914 86.7634C539.673 87.1217 540.558 87.3009 541.57 87.3009C542.476 87.3009 543.266 87.1639 543.941 86.8899C544.636 86.6159 545.269 86.2048 545.838 85.6568L548.462 88.5023C547.682 89.3876 546.702 90.0726 545.522 90.5574C544.341 91.0211 542.982 91.2529 541.443 91.2529ZM574.731 73.7374C576.08 73.7374 577.271 74.0115 578.304 74.5595C579.357 75.0864 580.179 75.9084 580.77 77.0255C581.381 78.1216 581.686 79.5338 581.686 81.2621V91H576.754V82.0209C576.754 80.6509 576.47 79.6392 575.901 78.9858C575.332 78.3324 574.531 78.0057 573.498 78.0057C572.781 78.0057 572.138 78.1743 571.569 78.5115C571 78.8277 570.558 79.3125 570.241 79.9659C569.925 80.6193 569.767 81.4518 569.767 82.4636V91H564.835V82.0209C564.835 80.6509 564.55 79.6392 563.981 78.9858C563.433 78.3324 562.643 78.0057 561.61 78.0057C560.893 78.0057 560.251 78.1743 559.681 78.5115C559.112 78.8277 558.67 79.3125 558.354 79.9659C558.037 80.6193 557.879 81.4518 557.879 82.4636V91H552.947V73.9904H557.658V78.638L556.773 77.2785C557.363 76.1192 558.196 75.2445 559.27 74.6543C560.367 74.0431 561.61 73.7374 563.001 73.7374C564.561 73.7374 565.92 74.1379 567.08 74.9389C568.26 75.7187 569.04 76.9202 569.419 78.5431L567.68 78.0689C568.25 76.741 569.156 75.6871 570.399 74.9073C571.664 74.1274 573.108 73.7374 574.731 73.7374ZM596.161 91.2529C594.728 91.2529 593.474 90.9368 592.399 90.3044C591.324 89.6721 590.481 88.7131 589.87 87.4273C589.28 86.1205 588.984 84.4765 588.984 82.4952C588.984 80.4928 589.269 78.8488 589.838 77.563C590.407 76.2773 591.229 75.3183 592.304 74.6859C593.379 74.0536 594.665 73.7374 596.161 73.7374C597.763 73.7374 599.197 74.1063 600.461 74.844C601.747 75.5607 602.759 76.5724 603.496 77.8792C604.255 79.186 604.635 80.7247 604.635 82.4952C604.635 84.2868 604.255 85.836 603.496 87.1428C602.759 88.4496 601.747 89.4613 600.461 90.178C599.197 90.8946 597.763 91.2529 596.161 91.2529ZM586.107 97.1336V73.9904H590.818V77.4682L590.723 82.5268L591.04 87.5538V97.1336H586.107ZM595.308 87.206C596.13 87.206 596.857 87.0163 597.489 86.6369C598.143 86.2575 598.659 85.7201 599.038 85.0245C599.439 84.3079 599.639 83.4648 599.639 82.4952C599.639 81.5045 599.439 80.6614 599.038 79.9659C598.659 79.2703 598.143 78.7328 597.489 78.3534C596.857 77.974 596.13 77.7843 595.308 77.7843C594.486 77.7843 593.748 77.974 593.095 78.3534C592.441 78.7328 591.925 79.2703 591.545 79.9659C591.166 80.6614 590.976 81.5045 590.976 82.4952C590.976 83.4648 591.166 84.3079 591.545 85.0245C591.925 85.7201 592.441 86.2575 593.095 86.6369C593.748 87.0163 594.486 87.206 595.308 87.206ZM616.03 91.2529C614.217 91.2529 612.605 90.8735 611.193 90.1147C609.802 89.3559 608.695 88.3231 607.873 87.0163C607.072 85.6884 606.672 84.1814 606.672 82.4952C606.672 80.7879 607.072 79.2809 607.873 77.974C608.695 76.6462 609.802 75.6134 611.193 74.8756C612.605 74.1168 614.217 73.7374 616.03 73.7374C617.822 73.7374 619.424 74.1168 620.836 74.8756C622.248 75.6134 623.354 76.6356 624.155 77.9424C624.956 79.2492 625.357 80.7668 625.357 82.4952C625.357 84.1814 624.956 85.6884 624.155 87.0163C623.354 88.3231 622.248 89.3559 620.836 90.1147C619.424 90.8735 617.822 91.2529 616.03 91.2529ZM616.03 87.206C616.852 87.206 617.59 87.0163 618.243 86.6369C618.897 86.2575 619.413 85.7201 619.792 85.0245C620.172 84.3079 620.361 83.4648 620.361 82.4952C620.361 81.5045 620.172 80.6614 619.792 79.9659C619.413 79.2703 618.897 78.7328 618.243 78.3534C617.59 77.974 616.852 77.7843 616.03 77.7843C615.208 77.7843 614.47 77.974 613.817 78.3534C613.163 78.7328 612.637 79.2703 612.236 79.9659C611.857 80.6614 611.667 81.5045 611.667 82.4952C611.667 83.4648 611.857 84.3079 612.236 85.0245C612.637 85.7201 613.163 86.2575 613.817 86.6369C614.47 87.0163 615.208 87.206 616.03 87.206ZM630.334 91.2529C629.491 91.2529 628.763 90.9684 628.152 90.3993C627.562 89.8091 627.267 89.0609 627.267 88.1545C627.267 87.2482 627.562 86.521 628.152 85.973C628.763 85.4039 629.491 85.1193 630.334 85.1193C631.198 85.1193 631.925 85.4039 632.515 85.973C633.105 86.521 633.401 87.2482 633.401 88.1545C633.401 89.0609 633.105 89.8091 632.515 90.3993C631.925 90.9684 631.198 91.2529 630.334 91.2529Z" fill="white"/>
<g filter="url(#filter0_d_275_52)">
<path d="M84.3605 142.061C84.9463 141.475 84.9463 140.525 84.3605 139.939L74.8145 130.393C74.2287 129.808 73.279 129.808 72.6932 130.393C72.1074 130.979 72.1074 131.929 72.6932 132.515L81.1785 141L72.6932 149.485C72.1074 150.071 72.1074 151.021 72.6932 151.607C73.279 152.192 74.2287 152.192 74.8145 151.607L84.3605 142.061ZM23.2998 141V142.5L83.2998 142.5V141V139.5L23.2998 139.5V141Z" fill="url(#paint0_linear_275_52)"/>
</g>
<g filter="url(#filter1_d_275_52)">
<path d="M640.239 139.939C639.653 140.525 639.653 141.475 640.239 142.061L649.785 151.607C650.371 152.192 651.321 152.192 651.906 151.607C652.492 151.021 652.492 150.071 651.906 149.485L643.421 141L651.906 132.515C652.492 131.929 652.492 130.979 651.906 130.393C651.321 129.808 650.371 129.808 649.785 130.393L640.239 139.939ZM701.3 141V139.5H641.3V141V142.5H701.3V141Z" fill="url(#paint1_linear_275_52)"/>
</g>
<path d="M110.06 150V132.396H118.108C119.717 132.396 121.1 132.656 122.257 133.176C123.43 133.696 124.336 134.45 124.973 135.439C125.61 136.412 125.929 137.569 125.929 138.91C125.929 140.234 125.61 141.383 124.973 142.355C124.336 143.327 123.43 144.082 122.257 144.618C121.1 145.138 119.717 145.398 118.108 145.398H112.826L115.039 143.235V150H110.06ZM115.039 143.763L112.826 141.475H117.806C118.845 141.475 119.616 141.249 120.119 140.796C120.639 140.343 120.899 139.714 120.899 138.91C120.899 138.088 120.639 137.451 120.119 136.999C119.616 136.546 118.845 136.32 117.806 136.32H112.826L115.039 134.031V143.763ZM128.356 150V132.396H133.336V146.052H141.735V150H128.356ZM141.765 150L149.536 132.396H154.439L162.235 150H157.055L150.969 134.836H152.931L146.845 150H141.765ZM146.015 146.58L147.297 142.908H155.898L157.181 146.58H146.015ZM163.647 150V132.396H167.746L177.453 144.115H175.517V132.396H180.395V150H176.296L166.589 138.281H168.526V150H163.647ZM192.785 150.352C191.377 150.352 190.077 150.126 188.887 149.673C187.697 149.22 186.657 148.583 185.769 147.762C184.897 146.924 184.218 145.951 183.732 144.845C183.246 143.738 183.002 142.523 183.002 141.198C183.002 139.874 183.246 138.658 183.732 137.552C184.218 136.445 184.897 135.481 185.769 134.66C186.657 133.821 187.697 133.176 188.887 132.723C190.077 132.271 191.377 132.044 192.785 132.044C194.21 132.044 195.509 132.271 196.683 132.723C197.873 133.176 198.904 133.821 199.776 134.66C200.648 135.481 201.327 136.445 201.813 137.552C202.316 138.658 202.568 139.874 202.568 141.198C202.568 142.523 202.316 143.747 201.813 144.87C201.327 145.976 200.648 146.94 199.776 147.762C198.904 148.583 197.873 149.22 196.683 149.673C195.509 150.126 194.21 150.352 192.785 150.352ZM192.785 146.228C193.456 146.228 194.076 146.11 194.646 145.876C195.233 145.641 195.736 145.306 196.155 144.87C196.591 144.417 196.926 143.881 197.161 143.26C197.412 142.64 197.538 141.953 197.538 141.198C197.538 140.427 197.412 139.74 197.161 139.136C196.926 138.516 196.591 137.988 196.155 137.552C195.736 137.099 195.233 136.755 194.646 136.521C194.076 136.286 193.456 136.169 192.785 136.169C192.114 136.169 191.486 136.286 190.899 136.521C190.329 136.755 189.826 137.099 189.39 137.552C188.971 137.988 188.636 138.516 188.384 139.136C188.149 139.74 188.032 140.427 188.032 141.198C188.032 141.953 188.149 142.64 188.384 143.26C188.636 143.881 188.971 144.417 189.39 144.87C189.826 145.306 190.329 145.641 190.899 145.876C191.486 146.11 192.114 146.228 192.785 146.228ZM211.362 150.352C209.92 150.352 208.529 150.176 207.187 149.824C205.863 149.455 204.781 148.986 203.943 148.416L205.578 144.744C206.366 145.247 207.271 145.666 208.294 146.001C209.333 146.32 210.364 146.479 211.387 146.479C212.074 146.479 212.628 146.421 213.047 146.303C213.466 146.169 213.768 146.001 213.952 145.8C214.153 145.582 214.254 145.331 214.254 145.046C214.254 144.643 214.069 144.325 213.701 144.09C213.332 143.856 212.854 143.663 212.267 143.512C211.68 143.361 211.027 143.21 210.306 143.059C209.601 142.908 208.889 142.715 208.168 142.481C207.464 142.246 206.818 141.944 206.232 141.575C205.645 141.19 205.167 140.695 204.798 140.092C204.429 139.471 204.245 138.692 204.245 137.753C204.245 136.697 204.53 135.741 205.1 134.886C205.687 134.031 206.559 133.344 207.715 132.824C208.872 132.304 210.314 132.044 212.041 132.044C213.198 132.044 214.329 132.178 215.436 132.447C216.559 132.698 217.557 133.075 218.428 133.578L216.894 137.275C216.056 136.822 215.226 136.487 214.405 136.269C213.583 136.034 212.787 135.917 212.016 135.917C211.328 135.917 210.775 135.993 210.356 136.143C209.937 136.278 209.635 136.462 209.451 136.697C209.266 136.931 209.174 137.2 209.174 137.501C209.174 137.887 209.35 138.197 209.702 138.432C210.071 138.65 210.549 138.834 211.136 138.985C211.739 139.119 212.393 139.262 213.097 139.413C213.818 139.564 214.53 139.756 215.235 139.991C215.956 140.209 216.609 140.511 217.196 140.896C217.783 141.265 218.252 141.76 218.604 142.38C218.973 142.984 219.158 143.747 219.158 144.669C219.158 145.691 218.864 146.639 218.278 147.51C217.708 148.365 216.844 149.053 215.687 149.572C214.547 150.092 213.105 150.352 211.362 150.352ZM237.553 150.352C236.161 150.352 234.87 150.134 233.68 149.698C232.506 149.246 231.484 148.608 230.612 147.787C229.757 146.965 229.086 146.001 228.6 144.895C228.114 143.772 227.871 142.539 227.871 141.198C227.871 139.857 228.114 138.633 228.6 137.527C229.086 136.403 229.757 135.431 230.612 134.609C231.484 133.788 232.506 133.159 233.68 132.723C234.87 132.271 236.161 132.044 237.553 132.044C239.179 132.044 240.629 132.329 241.903 132.899C243.194 133.469 244.267 134.291 245.122 135.364L241.954 138.231C241.384 137.56 240.755 137.049 240.068 136.697C239.397 136.345 238.643 136.169 237.804 136.169C237.083 136.169 236.421 136.286 235.818 136.521C235.214 136.755 234.694 137.099 234.258 137.552C233.839 137.988 233.504 138.516 233.253 139.136C233.018 139.756 232.9 140.444 232.9 141.198C232.9 141.953 233.018 142.64 233.253 143.26C233.504 143.881 233.839 144.417 234.258 144.87C234.694 145.306 235.214 145.641 235.818 145.876C236.421 146.11 237.083 146.228 237.804 146.228C238.643 146.228 239.397 146.052 240.068 145.7C240.755 145.348 241.384 144.836 241.954 144.166L245.122 147.033C244.267 148.089 243.194 148.91 241.903 149.497C240.629 150.067 239.179 150.352 237.553 150.352ZM255.851 150.352C254.443 150.352 253.144 150.126 251.953 149.673C250.763 149.22 249.724 148.583 248.835 147.762C247.963 146.924 247.284 145.951 246.798 144.845C246.312 143.738 246.069 142.523 246.069 141.198C246.069 139.874 246.312 138.658 246.798 137.552C247.284 136.445 247.963 135.481 248.835 134.66C249.724 133.821 250.763 133.176 251.953 132.723C253.144 132.271 254.443 132.044 255.851 132.044C257.276 132.044 258.576 132.271 259.749 132.723C260.94 133.176 261.971 133.821 262.842 134.66C263.714 135.481 264.393 136.445 264.879 137.552C265.382 138.658 265.634 139.874 265.634 141.198C265.634 142.523 265.382 143.747 264.879 144.87C264.393 145.976 263.714 146.94 262.842 147.762C261.971 148.583 260.94 149.22 259.749 149.673C258.576 150.126 257.276 150.352 255.851 150.352ZM255.851 146.228C256.522 146.228 257.142 146.11 257.712 145.876C258.299 145.641 258.802 145.306 259.221 144.87C259.657 144.417 259.992 143.881 260.227 143.26C260.479 142.64 260.604 141.953 260.604 141.198C260.604 140.427 260.479 139.74 260.227 139.136C259.992 138.516 259.657 137.988 259.221 137.552C258.802 137.099 258.299 136.755 257.712 136.521C257.142 136.286 256.522 136.169 255.851 136.169C255.181 136.169 254.552 136.286 253.965 136.521C253.395 136.755 252.892 137.099 252.456 137.552C252.037 137.988 251.702 138.516 251.45 139.136C251.216 139.74 251.098 140.427 251.098 141.198C251.098 141.953 251.216 142.64 251.45 143.26C251.702 143.881 252.037 144.417 252.456 144.87C252.892 145.306 253.395 145.641 253.965 145.876C254.552 146.11 255.181 146.228 255.851 146.228ZM268.242 150V132.396H272.341L279.634 144.367H277.471L284.563 132.396H288.662L288.712 150H284.135L284.085 139.362H284.865L279.558 148.265H277.345L271.888 139.362H272.844V150H268.242ZM297.442 150L305.212 132.396H310.116L317.912 150H312.731L306.646 134.836H308.607L302.521 150H297.442ZM301.692 146.58L302.974 142.908H311.575L312.857 146.58H301.692ZM322.187 150V136.345H316.78V132.396H332.548V136.345H327.166V150H322.187ZM338.979 139.212H347.153V142.933H338.979V139.212ZM339.332 146.152H348.536V150H334.403V132.396H348.209V136.244H339.332V146.152ZM338.854 130.963L342.224 127.141H347.002L342.274 130.963H338.854ZM365.86 150.352C364.217 150.352 362.783 150.025 361.56 149.371C360.353 148.717 359.405 147.745 358.718 146.454C358.047 145.163 357.712 143.571 357.712 141.676C357.712 139.631 358.106 137.895 358.894 136.47C359.699 135.029 360.797 133.93 362.188 133.176C363.597 132.422 365.223 132.044 367.067 132.044C368.056 132.044 369.003 132.162 369.909 132.396C370.831 132.614 371.61 132.925 372.248 133.327L370.437 136.898C369.934 136.546 369.406 136.311 368.853 136.194C368.316 136.06 367.763 135.993 367.193 135.993C365.835 135.993 364.745 136.403 363.924 137.225C363.119 138.046 362.716 139.245 362.716 140.821C362.716 141.106 362.716 141.408 362.716 141.726C362.733 142.028 362.767 142.338 362.817 142.657L361.56 141.626C361.895 141.005 362.297 140.486 362.767 140.067C363.253 139.647 363.823 139.329 364.477 139.111C365.147 138.893 365.893 138.784 366.715 138.784C367.821 138.784 368.827 139.019 369.733 139.488C370.655 139.941 371.392 140.586 371.946 141.425C372.499 142.246 372.776 143.218 372.776 144.342C372.776 145.566 372.465 146.63 371.845 147.535C371.225 148.424 370.395 149.12 369.355 149.623C368.316 150.109 367.151 150.352 365.86 150.352ZM365.558 146.806C366.028 146.806 366.438 146.714 366.79 146.53C367.159 146.345 367.444 146.085 367.645 145.75C367.847 145.415 367.947 145.021 367.947 144.568C367.947 143.897 367.721 143.361 367.268 142.959C366.832 142.556 366.254 142.355 365.533 142.355C365.047 142.355 364.619 142.447 364.25 142.632C363.898 142.816 363.613 143.076 363.395 143.411C363.194 143.747 363.094 144.141 363.094 144.593C363.094 145.029 363.194 145.415 363.395 145.75C363.597 146.069 363.882 146.328 364.25 146.53C364.619 146.714 365.055 146.806 365.558 146.806ZM381.814 150.352C380.305 150.352 378.964 149.992 377.79 149.271C376.634 148.55 375.72 147.51 375.049 146.152C374.379 144.794 374.043 143.143 374.043 141.198C374.043 139.253 374.379 137.602 375.049 136.244C375.72 134.886 376.634 133.847 377.79 133.126C378.964 132.405 380.305 132.044 381.814 132.044C383.306 132.044 384.631 132.405 385.788 133.126C386.961 133.847 387.883 134.886 388.554 136.244C389.224 137.602 389.56 139.253 389.56 141.198C389.56 143.143 389.224 144.794 388.554 146.152C387.883 147.51 386.961 148.55 385.788 149.271C384.631 149.992 383.306 150.352 381.814 150.352ZM381.814 146.278C382.351 146.278 382.82 146.11 383.222 145.775C383.642 145.44 383.968 144.903 384.203 144.166C384.438 143.411 384.555 142.422 384.555 141.198C384.555 139.958 384.438 138.968 384.203 138.231C383.968 137.493 383.642 136.957 383.222 136.621C382.82 136.286 382.351 136.118 381.814 136.118C381.278 136.118 380.8 136.286 380.381 136.621C379.978 136.957 379.651 137.493 379.4 138.231C379.165 138.968 379.048 139.958 379.048 141.198C379.048 142.422 379.165 143.411 379.4 144.166C379.651 144.903 379.978 145.44 380.381 145.775C380.8 146.11 381.278 146.278 381.814 146.278ZM393.849 150L405.87 132.396H409.491L397.471 150H393.849ZM395.459 141.928C394.604 141.928 393.832 141.735 393.145 141.349C392.458 140.963 391.921 140.41 391.536 139.689C391.15 138.952 390.957 138.071 390.957 137.049C390.957 136.026 391.15 135.154 391.536 134.433C391.921 133.713 392.458 133.159 393.145 132.774C393.832 132.371 394.604 132.17 395.459 132.17C396.33 132.17 397.102 132.371 397.772 132.774C398.46 133.159 398.996 133.713 399.382 134.433C399.784 135.154 399.985 136.026 399.985 137.049C399.985 138.055 399.784 138.927 399.382 139.664C398.996 140.402 398.46 140.963 397.772 141.349C397.102 141.735 396.33 141.928 395.459 141.928ZM395.484 139.538C395.903 139.538 396.247 139.346 396.515 138.96C396.8 138.574 396.942 137.937 396.942 137.049C396.942 136.16 396.8 135.523 396.515 135.138C396.247 134.752 395.903 134.559 395.484 134.559C395.065 134.559 394.704 134.752 394.402 135.138C394.117 135.523 393.975 136.16 393.975 137.049C393.975 137.937 394.117 138.574 394.402 138.96C394.704 139.346 395.065 139.538 395.484 139.538ZM407.882 150.226C407.01 150.226 406.23 150.034 405.543 149.648C404.872 149.262 404.344 148.709 403.959 147.988C403.573 147.25 403.38 146.37 403.38 145.348C403.38 144.325 403.573 143.453 403.959 142.732C404.344 142.011 404.872 141.458 405.543 141.072C406.23 140.67 407.01 140.469 407.882 140.469C408.754 140.469 409.525 140.67 410.195 141.072C410.883 141.458 411.419 142.011 411.805 142.732C412.207 143.453 412.408 144.325 412.408 145.348C412.408 146.37 412.207 147.25 411.805 147.988C411.419 148.709 410.883 149.262 410.195 149.648C409.525 150.034 408.754 150.226 407.882 150.226ZM407.882 147.837C408.301 147.837 408.653 147.644 408.938 147.259C409.223 146.873 409.365 146.236 409.365 145.348C409.365 144.459 409.223 143.822 408.938 143.436C408.653 143.051 408.301 142.858 407.882 142.858C407.479 142.858 407.127 143.051 406.826 143.436C406.541 143.822 406.398 144.459 406.398 145.348C406.398 146.236 406.541 146.873 406.826 147.259C407.127 147.644 407.479 147.837 407.882 147.837ZM422.052 150V132.396H430.376C432.321 132.396 434.031 132.757 435.506 133.478C436.982 134.199 438.13 135.213 438.951 136.521C439.79 137.828 440.209 139.388 440.209 141.198C440.209 142.992 439.79 144.551 438.951 145.876C438.13 147.183 436.982 148.198 435.506 148.919C434.031 149.64 432.321 150 430.376 150H422.052ZM427.031 146.027H430.175C431.181 146.027 432.053 145.842 432.79 145.473C433.545 145.088 434.131 144.535 434.551 143.814C434.97 143.076 435.179 142.204 435.179 141.198C435.179 140.176 434.97 139.304 434.551 138.583C434.131 137.862 433.545 137.317 432.79 136.948C432.053 136.563 431.181 136.37 430.175 136.37H427.031V146.027ZM447.406 139.212H455.579V142.933H447.406V139.212ZM447.758 146.152H456.962V150H442.829V132.396H456.635V136.244H447.758V146.152ZM467.043 150V132.396H475.367C477.312 132.396 479.022 132.757 480.497 133.478C481.973 134.199 483.121 135.213 483.943 136.521C484.781 137.828 485.2 139.388 485.2 141.198C485.2 142.992 484.781 144.551 483.943 145.876C483.121 147.183 481.973 148.198 480.497 148.919C479.022 149.64 477.312 150 475.367 150H467.043ZM472.023 146.027H475.166C476.172 146.027 477.044 145.842 477.781 145.473C478.536 145.088 479.123 144.535 479.542 143.814C479.961 143.076 480.171 142.204 480.171 141.198C480.171 140.176 479.961 139.304 479.542 138.583C479.123 137.862 478.536 137.317 477.781 136.948C477.044 136.563 476.172 136.37 475.166 136.37H472.023V146.027ZM492.397 139.212H500.57V142.933H492.397V139.212ZM492.749 146.152H501.953V150H487.82V132.396H501.626V136.244H492.749V146.152ZM510.903 150.352C509.461 150.352 508.069 150.176 506.728 149.824C505.404 149.455 504.322 148.986 503.484 148.416L505.119 144.744C505.906 145.247 506.812 145.666 507.834 146.001C508.874 146.32 509.905 146.479 510.928 146.479C511.615 146.479 512.168 146.421 512.587 146.303C513.007 146.169 513.308 146.001 513.493 145.8C513.694 145.582 513.795 145.331 513.795 145.046C513.795 144.643 513.61 144.325 513.241 144.09C512.872 143.856 512.395 143.663 511.808 143.512C511.221 143.361 510.567 143.21 509.846 143.059C509.142 142.908 508.43 142.715 507.709 142.481C507.005 142.246 506.359 141.944 505.772 141.575C505.186 141.19 504.708 140.695 504.339 140.092C503.97 139.471 503.786 138.692 503.786 137.753C503.786 136.697 504.071 135.741 504.641 134.886C505.227 134.031 506.099 133.344 507.256 132.824C508.413 132.304 509.855 132.044 511.582 132.044C512.738 132.044 513.87 132.178 514.977 132.447C516.1 132.698 517.097 133.075 517.969 133.578L516.435 137.275C515.597 136.822 514.767 136.487 513.945 136.269C513.124 136.034 512.328 135.917 511.556 135.917C510.869 135.917 510.316 135.993 509.897 136.143C509.477 136.278 509.176 136.462 508.991 136.697C508.807 136.931 508.715 137.2 508.715 137.501C508.715 137.887 508.891 138.197 509.243 138.432C509.612 138.65 510.089 138.834 510.676 138.985C511.28 139.119 511.934 139.262 512.638 139.413C513.359 139.564 514.071 139.756 514.775 139.991C515.496 140.209 516.15 140.511 516.737 140.896C517.324 141.265 517.793 141.76 518.145 142.38C518.514 142.984 518.698 143.747 518.698 144.669C518.698 145.691 518.405 146.639 517.818 147.51C517.248 148.365 516.385 149.053 515.228 149.572C514.088 150.092 512.646 150.352 510.903 150.352ZM529.775 150.352C528.384 150.352 527.093 150.134 525.902 149.698C524.729 149.246 523.706 148.608 522.834 147.787C521.979 146.965 521.309 146.001 520.822 144.895C520.336 143.772 520.093 142.539 520.093 141.198C520.093 139.857 520.336 138.633 520.822 137.527C521.309 136.403 521.979 135.431 522.834 134.609C523.706 133.788 524.729 133.159 525.902 132.723C527.093 132.271 528.384 132.044 529.775 132.044C531.401 132.044 532.852 132.329 534.126 132.899C535.417 133.469 536.49 134.291 537.345 135.364L534.176 138.231C533.606 137.56 532.977 137.049 532.29 136.697C531.619 136.345 530.865 136.169 530.027 136.169C529.306 136.169 528.643 136.286 528.04 136.521C527.436 136.755 526.917 137.099 526.481 137.552C526.062 137.988 525.726 138.516 525.475 139.136C525.24 139.756 525.123 140.444 525.123 141.198C525.123 141.953 525.24 142.64 525.475 143.26C525.726 143.881 526.062 144.417 526.481 144.87C526.917 145.306 527.436 145.641 528.04 145.876C528.643 146.11 529.306 146.228 530.027 146.228C530.865 146.228 531.619 146.052 532.29 145.7C532.977 145.348 533.606 144.836 534.176 144.166L537.345 147.033C536.49 148.089 535.417 148.91 534.126 149.497C532.852 150.067 531.401 150.352 529.775 150.352ZM548.074 150.352C546.665 150.352 545.366 150.126 544.176 149.673C542.985 149.22 541.946 148.583 541.057 147.762C540.186 146.924 539.507 145.951 539.02 144.845C538.534 143.738 538.291 142.523 538.291 141.198C538.291 139.874 538.534 138.658 539.02 137.552C539.507 136.445 540.186 135.481 541.057 134.66C541.946 133.821 542.985 133.176 544.176 132.723C545.366 132.271 546.665 132.044 548.074 132.044C549.499 132.044 550.798 132.271 551.972 132.723C553.162 133.176 554.193 133.821 555.065 134.66C555.937 135.481 556.616 136.445 557.102 137.552C557.605 138.658 557.856 139.874 557.856 141.198C557.856 142.523 557.605 143.747 557.102 144.87C556.616 145.976 555.937 146.94 555.065 147.762C554.193 148.583 553.162 149.22 551.972 149.673C550.798 150.126 549.499 150.352 548.074 150.352ZM548.074 146.228C548.744 146.228 549.365 146.11 549.935 145.876C550.521 145.641 551.024 145.306 551.443 144.87C551.879 144.417 552.215 143.881 552.449 143.26C552.701 142.64 552.827 141.953 552.827 141.198C552.827 140.427 552.701 139.74 552.449 139.136C552.215 138.516 551.879 137.988 551.443 137.552C551.024 137.099 550.521 136.755 549.935 136.521C549.365 136.286 548.744 136.169 548.074 136.169C547.403 136.169 546.774 136.286 546.187 136.521C545.617 136.755 545.115 137.099 544.679 137.552C544.259 137.988 543.924 138.516 543.673 139.136C543.438 139.74 543.321 140.427 543.321 141.198C543.321 141.953 543.438 142.64 543.673 143.26C543.924 143.881 544.259 144.417 544.679 144.87C545.115 145.306 545.617 145.641 546.187 145.876C546.774 146.11 547.403 146.228 548.074 146.228ZM560.464 150V132.396H564.563L574.27 144.115H572.334V132.396H577.213V150H573.113L563.406 138.281H565.343V150H560.464ZM584.472 150V136.345H579.065V132.396H594.833V136.345H589.451V150H584.472ZM605.32 150.352C603.911 150.352 602.612 150.126 601.422 149.673C600.231 149.22 599.192 148.583 598.303 147.762C597.432 146.924 596.753 145.951 596.266 144.845C595.78 143.738 595.537 142.523 595.537 141.198C595.537 139.874 595.78 138.658 596.266 137.552C596.753 136.445 597.432 135.481 598.303 134.66C599.192 133.821 600.231 133.176 601.422 132.723C602.612 132.271 603.911 132.044 605.32 132.044C606.745 132.044 608.044 132.271 609.218 132.723C610.408 133.176 611.439 133.821 612.311 134.66C613.183 135.481 613.862 136.445 614.348 137.552C614.851 138.658 615.102 139.874 615.102 141.198C615.102 142.523 614.851 143.747 614.348 144.87C613.862 145.976 613.183 146.94 612.311 147.762C611.439 148.583 610.408 149.22 609.218 149.673C608.044 150.126 606.745 150.352 605.32 150.352ZM605.32 146.228C605.99 146.228 606.611 146.11 607.181 145.876C607.767 145.641 608.27 145.306 608.689 144.87C609.125 144.417 609.461 143.881 609.695 143.26C609.947 142.64 610.073 141.953 610.073 141.198C610.073 140.427 609.947 139.74 609.695 139.136C609.461 138.516 609.125 137.988 608.689 137.552C608.27 137.099 607.767 136.755 607.181 136.521C606.611 136.286 605.99 136.169 605.32 136.169C604.649 136.169 604.02 136.286 603.433 136.521C602.863 136.755 602.361 137.099 601.925 137.552C601.505 137.988 601.17 138.516 600.919 139.136C600.684 139.74 600.567 140.427 600.567 141.198C600.567 141.953 600.684 142.64 600.919 143.26C601.17 143.881 601.505 144.417 601.925 144.87C602.361 145.306 602.863 145.641 603.433 145.876C604.02 146.11 604.649 146.228 605.32 146.228Z" fill="white"/>
<path d="M57.258 50V10.4179H77.5014C82.7036 10.4179 86.5865 11.3792 89.1499 13.3017C91.7133 15.1866 92.995 17.6746 92.995 20.7658C92.995 22.8014 92.4484 24.5921 91.3552 26.1377C90.2996 27.6455 88.7917 28.8519 86.8315 29.7566C84.9089 30.6236 82.6094 31.0571 79.9329 31.0571L81.0638 28.3429C83.8534 28.3429 86.2849 28.7765 88.3582 29.6435C90.4316 30.4728 92.0337 31.698 93.1646 33.319C94.3332 34.9023 94.9176 36.8437 94.9176 39.1432C94.9176 42.5736 93.5228 45.2501 90.7332 47.1727C87.9813 49.0576 83.9477 50 78.6323 50H57.258ZM68.341 41.9139H77.7276C79.6502 41.9139 81.1015 41.5935 82.0816 40.9527C83.0995 40.2741 83.6084 39.2563 83.6084 37.8992C83.6084 36.5421 83.0995 35.5431 82.0816 34.9023C81.1015 34.2237 79.6502 33.8844 77.7276 33.8844H67.5494V26.1377H76.0312C77.9161 26.1377 79.3297 25.8172 80.2722 25.1764C81.2146 24.5355 81.6858 23.5742 81.6858 22.2925C81.6858 21.0108 81.2146 20.0684 80.2722 19.4652C79.3297 18.8244 77.9161 18.504 76.0312 18.504H68.341V41.9139ZM100.717 50V10.4179H111.913V41.1223H130.799V50H100.717ZM130.866 50L148.339 10.4179H159.365L176.894 50H165.246L151.562 15.9029H155.972L142.288 50H130.866ZM140.422 42.3098L143.306 34.0541H162.645L165.529 42.3098H140.422ZM199.251 50.7916C196.122 50.7916 193.219 50.3016 190.543 49.3214C187.904 48.3036 185.604 46.8711 183.644 45.024C181.722 43.1768 180.214 41.0092 179.12 38.5212C178.027 35.9955 177.481 33.2247 177.481 30.209C177.481 27.1932 178.027 24.4413 179.12 21.9533C180.214 19.4275 181.722 17.2411 183.644 15.3939C185.604 13.5468 187.904 12.1331 190.543 11.153C193.219 10.1352 196.122 9.62626 199.251 9.62626C202.907 9.62626 206.168 10.2671 209.033 11.5488C211.936 12.8305 214.349 14.6777 216.271 17.0903L209.146 23.5365C207.865 22.0287 206.451 20.8789 204.905 20.0872C203.398 19.2956 201.701 18.8998 199.816 18.8998C198.195 18.8998 196.706 19.1637 195.349 19.6914C193.992 20.2192 192.823 20.992 191.843 22.0098C190.901 22.9899 190.147 24.1774 189.581 25.5722C189.054 26.967 188.79 28.5126 188.79 30.209C188.79 31.9053 189.054 33.4509 189.581 34.8457C190.147 36.2405 190.901 37.4468 191.843 38.4646C192.823 39.4448 193.992 40.1987 195.349 40.7265C196.706 41.2542 198.195 41.5181 199.816 41.5181C201.701 41.5181 203.398 41.1223 204.905 40.3307C206.451 39.539 207.865 38.3893 209.146 36.8814L216.271 43.3276C214.349 45.7025 211.936 47.5497 209.033 48.8691C206.168 50.1508 202.907 50.7916 199.251 50.7916ZM231.272 41.2354L230.65 28.6822L247.67 10.4179H259.997L243.033 28.7953L236.813 35.2981L231.272 41.2354ZM221.263 50V10.4179H232.346V50H221.263ZM247.84 50L234.947 33.6583L242.242 25.8549L260.845 50H247.84ZM280.239 50V10.4179H291.435V41.1223H310.321V50H280.239ZM314.751 50V10.4179H325.948V50H314.751ZM345.96 50L329.053 10.4179H341.153L355.403 44.6847H348.278L362.867 10.4179H373.95L356.986 50H345.96ZM376.267 50V10.4179H394.362C397.981 10.4179 401.091 11.0022 403.692 12.1708C406.331 13.3394 408.366 15.0358 409.799 17.26C411.231 19.4464 411.948 22.0475 411.948 25.0633C411.948 28.0414 411.231 30.6236 409.799 32.8101C408.366 34.9588 406.331 36.6175 403.692 37.7861C401.091 38.917 397.981 39.4825 394.362 39.4825H382.487L387.463 34.7892V50H376.267ZM400.751 50L390.913 35.5808H402.844L412.739 50H400.751ZM387.463 35.9766L382.487 30.831H393.683C396.02 30.831 397.755 30.322 398.885 29.3042C400.054 28.2864 400.638 26.8727 400.638 25.0633C400.638 23.2161 400.054 21.7836 398.885 20.7658C397.755 19.748 396.02 19.2391 393.683 19.2391H382.487L387.463 14.0934V35.9766ZM428.416 25.7418H446.793V34.1106H428.416V25.7418ZM429.207 41.3485H449.903V50H418.124V10.4179H449.168V19.0694H429.207V41.3485Z" fill="white"/>
<path d="M473.3 18.2731H492.892L473.3 42.6274V49.5752H503.898V41.8468H484.383L503.898 17.4925V10.5459H473.3V18.2731Z" fill="white"/>
<path d="M535.318 12.4192C532.508 10.8068 529.256 10 525.561 10C521.867 10 518.666 10.8593 515.805 12.5753C512.942 14.2926 510.704 16.6344 509.092 19.6006C507.478 22.5668 506.672 25.9502 506.672 29.7482C506.672 33.7561 507.492 37.2943 509.132 40.3642C510.771 43.4353 513.061 45.8283 516.001 47.5456C518.939 49.2629 522.363 50.1209 526.266 50.1209C530.169 50.1209 533.498 49.2229 536.569 47.4282C539.639 45.6335 541.956 43.1743 543.516 40.052L535.789 37.4766C535.112 38.9342 533.902 40.1044 532.159 40.9887C530.415 41.8742 528.451 42.3163 526.266 42.3163C524.444 42.3163 522.831 41.9528 521.426 41.2235C520.021 40.4953 518.862 39.4675 517.953 38.1398C517.042 36.8122 516.457 35.2398 516.197 33.4176H543.986C544.089 32.637 544.168 31.8951 544.22 31.1932C544.272 30.4913 544.298 29.8269 544.298 29.2024C544.298 25.4044 543.504 22.0597 541.917 19.1722C540.329 16.2847 538.132 14.0341 535.322 12.4204L535.318 12.4192ZM516.35 26.2349C516.61 24.5177 517.196 23.0227 518.106 21.7463C519.017 20.4723 520.122 19.4707 521.424 18.7413C522.724 18.0132 524.103 17.6485 525.561 17.6485C527.226 17.6485 528.735 18.0269 530.089 18.78C531.441 19.5344 532.534 20.5635 533.367 21.8637C534.199 23.1651 534.641 24.6226 534.695 26.2349H516.352H516.35Z" fill="white"/>
<path d="M572.819 34.3802C577.855 33.105 581.6 28.3228 581.6 22.6139C581.6 15.9296 576.47 10.5117 570.14 10.5117C569.789 10.5117 569.442 10.5305 569.098 10.5642V10.5117H549.65V50.1031H558.449V34.7161H564.215L573.035 50.1031H581.834L572.821 34.3802H572.819ZM569.444 27.1376C569.327 27.1376 569.212 27.1288 569.097 27.1189V27.1376H558.446V18.0915H569.097V18.1103C569.212 18.1003 569.327 18.0915 569.444 18.0915C571.81 18.0915 573.728 20.1161 573.728 22.6152C573.728 25.1143 571.811 27.1388 569.444 27.1388V27.1376Z" fill="white"/>
<path d="M651.959 10.0488H605.447V10.0538C605.331 10.0513 605.216 10.0488 605.1 10.0488C593.783 10.0488 584.61 19.1711 584.61 30.424C584.61 41.6769 593.783 50.7992 605.1 50.7992C605.119 50.7992 605.136 50.7992 605.155 50.7992C605.174 50.7992 605.191 50.7992 605.21 50.7992C609.971 50.7992 614.467 49.1668 618.049 46.4416C619.926 45.0141 621.553 43.2856 622.835 41.336C622.925 41.1986 629.5 30.424 629.5 30.424H618.997C618.997 30.424 615.004 37.3469 614.002 38.4235C611.812 40.779 608.697 42.2789 605.215 42.2802V42.2777C605.195 42.2777 605.175 42.2777 605.154 42.2789C605.134 42.2789 605.114 42.2777 605.092 42.2777V42.2802C598.509 42.2777 593.174 36.9697 593.174 30.424C593.174 23.8783 598.501 18.5791 605.076 18.5678H605.473L646.851 18.6165L627.652 50.7992H638.107L658.3 17.0828V10.0501H651.955L651.959 10.0488Z" fill="url(#paint2_linear_275_52)"/>
<defs>
<filter id="filter0_d_275_52" x="-0.00019455" y="106.654" width="108.1" height="68.6918" filterUnits="userSpaceOnUse" color-interpolation-filters="sRGB">
<feFlood flood-opacity="0" result="BackgroundImageFix"/>
<feColorMatrix in="SourceAlpha" type="matrix" values="0 0 0 0 0 0 0 0 0 0 0 0 0 0 0 0 0 0 127 0" result="hardAlpha"/>
<feOffset/>
<feGaussianBlur stdDeviation="11.65"/>
<feComposite in2="hardAlpha" operator="out"/>
<feColorMatrix type="matrix" values="0 0 0 0 0 0 0 0 0 0.631373 0 0 0 0 1 0 0 0 0.6 0"/>
<feBlend mode="normal" in2="BackgroundImageFix" result="effect1_dropShadow_275_52"/>
<feBlend mode="normal" in="SourceGraphic" in2="effect1_dropShadow_275_52" result="shape"/>
</filter>
<filter id="filter1_d_275_52" x="616.5" y="106.654" width="108.1" height="68.6918" filterUnits="userSpaceOnUse" color-interpolation-filters="sRGB">
<feFlood flood-opacity="0" result="BackgroundImageFix"/>
<feColorMatrix in="SourceAlpha" type="matrix" values="0 0 0 0 0 0 0 0 0 0 0 0 0 0 0 0 0 0 127 0" result="hardAlpha"/>
<feOffset/>
<feGaussianBlur stdDeviation="11.65"/>
<feComposite in2="hardAlpha" operator="out"/>
<feColorMatrix type="matrix" values="0 0 0 0 0 0 0 0 0 0.631373 0 0 0 0 1 0 0 0 0.6 0"/>
<feBlend mode="normal" in2="BackgroundImageFix" result="effect1_dropShadow_275_52"/>
<feBlend mode="normal" in="SourceGraphic" in2="effect1_dropShadow_275_52" result="shape"/>
</filter>
<linearGradient id="paint0_linear_275_52" x1="23.2998" y1="141.5" x2="83.2998" y2="141.5" gradientUnits="userSpaceOnUse">
<stop stop-color="#006199"/>
<stop offset="1" stop-color="#00A1FF"/>
</linearGradient>
<linearGradient id="paint1_linear_275_52" x1="701.3" y1="140.5" x2="641.3" y2="140.5" gradientUnits="userSpaceOnUse">
<stop stop-color="#006199"/>
<stop offset="1" stop-color="#00A1FF"/>
</linearGradient>
<linearGradient id="paint2_linear_275_52" x1="584.609" y1="30.424" x2="658.302" y2="30.424" gradientUnits="userSpaceOnUse">
<stop stop-color="#B2B2B2"/>
<stop offset="1" stop-color="white"/>
</linearGradient>
</defs>
</svg>
